<?xml version="1.0" encoding="utf-8"?>
<!-- Generator: Adobe Illustrator 16.0.0, SVG Export Plug-In . SVG Version: 6.00 Build 0)  -->
<!DOCTYPE svg PUBLIC "-//W3C//DTD SVG 1.1//EN" "http://www.w3.org/Graphics/SVG/1.1/DTD/svg11.dtd">
<svg version="1.1" id="Layer_1" xmlns="http://www.w3.org/2000/svg" xmlns:xlink="http://www.w3.org/1999/xlink" x="0px" y="0px"
	 width="1000px" height="999.623px" viewBox="-356.042 -432.423 1000 999.623"
	 enable-background="new -356.042 -432.423 1000 999.623" xml:space="preserve">
<path fill="#4D4D4D" d="M143.956-259.794c-180.591,0-326.988,146.399-326.988,326.989c0,180.599,146.4,326.999,326.988,326.999
	c180.586,0,326.995-146.4,326.995-326.999C470.951-113.395,324.542-259.794,143.956-259.794z M143.956,309.403
	c-133.058,0-240.921-107.848-240.921-240.914c0-133.054,107.863-240.918,240.921-240.918c133.056,0,240.922,107.864,240.922,240.918
	C384.877,201.555,277.011,309.403,143.956,309.403z"/>
<path fill="#4D4D4D" d="M143.96-87.646c-85.522,0-154.845,69.33-154.845,154.846c0,85.515,69.328,154.846,154.845,154.846
	c85.519,0,154.842-69.331,154.842-154.846C298.802-18.32,229.479-87.646,143.96-87.646z M143.96,137.896
	c-37.981,0-68.777-30.792-68.777-68.771c0-37.983,30.795-68.77,68.777-68.77c37.983,0,68.769,30.788,68.769,68.771
	C212.729,107.106,181.943,137.896,143.96,137.896z"/>
<path display="none" fill="none" stroke="#4D4D4D" stroke-miterlimit="10" d="M0,0h288v134.4H0V0z"/>
<g>
	<path d="M143.961-271.51c-187.068,0-338.708,151.645-338.708,338.71s151.646,338.714,338.708,338.714
		c187.057,0,338.712-151.648,338.712-338.714S331.018-271.51,143.961-271.51z M143.961,318.091
		c-137.824,0-249.553-111.718-249.553-249.548c0-137.826,111.73-249.547,249.553-249.547c137.825,0,249.554,111.721,249.554,249.547
		C393.515,206.373,281.787,318.091,143.961,318.091z"/>
	<path d="M143.961-432.8c-276.141,0-500.003,223.857-500.003,500c0,276.147,223.862,500,500.003,500
		c276.138,0,499.997-223.853,499.997-500C643.958-208.943,420.099-432.8,143.961-432.8z M143.961,484.842
		c-229.561,0-415.66-186.098-415.66-415.656c0-229.565,186.1-415.664,415.66-415.664c229.563,0,415.656,186.099,415.656,415.659
		C559.618,298.744,373.525,484.842,143.961,484.842z"/>
	<path d="M143.961-93.227c-89.078,0-161.293,72.212-161.293,161.289c0,89.08,72.215,161.29,161.293,161.29
		c89.084,0,161.288-72.21,161.288-161.29C305.25-21.011,233.045-93.227,143.961-93.227z M143.961,141.705
		c-39.566,0-71.64-32.071-71.64-71.632c0-39.566,32.073-71.641,71.64-71.641c39.562,0,71.632,32.074,71.632,71.641
		C215.593,109.634,183.524,141.705,143.961,141.705z"/>
</g>
</svg>
