<?xml version="1.0" encoding="utf-8"?>
<!-- Generator: Adobe Illustrator 16.0.0, SVG Export Plug-In . SVG Version: 6.00 Build 0)  -->
<!DOCTYPE svg PUBLIC "-//W3C//DTD SVG 1.1//EN" "http://www.w3.org/Graphics/SVG/1.1/DTD/svg11.dtd">
<svg version="1.1" id="Layer_1" xmlns="http://www.w3.org/2000/svg" xmlns:xlink="http://www.w3.org/1999/xlink" x="0px" y="0px"
	 width="287.917px" height="134.4px" viewBox="0 0 287.917 134.4" enable-background="new 0 0 287.917 134.4" xml:space="preserve">
<g>
	<path fill="#58595B" d="M220,67.785c0-41.973-34.026-76-76-76c-41.973,0-76,34.027-76,76c0,41.975,34.027,76,76,76
		S220,109.76,220,67.785z M95.153,67.648c0-26.977,21.87-48.846,48.846-48.846c26.979,0,48.848,21.871,48.848,48.846
		c0,26.979-21.871,48.848-48.848,48.848C117.023,116.496,95.153,94.627,95.153,67.648z"/>
	<circle fill="#58595B" cx="144" cy="68.252" r="22.5"/>
	<path fill="#58595B" d="M274,68C274-3.797,215.795-62,144-62C72.205-62.001,14-3.797,14,68c0,71.797,58.205,130,130,130
		C215.795,198,274,139.797,274,68z M41.733,67.378C41.733,10.897,87.52-34.89,144-34.89c56.481,0,102.268,45.787,102.268,102.268
		c0,56.483-45.786,102.27-102.268,102.27C87.52,169.647,41.733,123.861,41.733,67.378z"/>
</g>
</svg>
