<?xml version="1.0" encoding="utf-8"?>
<!-- Generator: Adobe Illustrator 16.0.0, SVG Export Plug-In . SVG Version: 6.00 Build 0)  -->
<!DOCTYPE svg PUBLIC "-//W3C//DTD SVG 1.1//EN" "http://www.w3.org/Graphics/SVG/1.1/DTD/svg11.dtd">
<svg version="1.1" id="Layer_1" xmlns="http://www.w3.org/2000/svg" xmlns:xlink="http://www.w3.org/1999/xlink" x="0px" y="0px" width="1000px" height="1000px" viewBox="0 0 1000 1000" enable-background="new 0 0 1000 1000" xml:space="preserve">
<defs>
	<mask id="mask" maskUnits="userSpaceOnUse" maskContentUnits="userSpaceOnUse">
		<path fill="#FFFFFF" d="M500.003,161.101c-187.068,0-338.708,151.645-338.708,338.71s151.646,338.714,338.708,338.714
			c187.057,0,338.712-151.648,338.712-338.714S687.06,161.101,500.003,161.101z M500.003,750.702
			c-137.824,0-249.553-111.718-249.553-249.548c0-137.826,111.73-249.547,249.553-249.547c137.825,0,249.554,111.721,249.554,249.547
			C749.557,638.984,637.829,750.702,500.003,750.702z"/>
		<path fill="#FFFFFF" d="M500.003-0.189C223.863-0.189,0,223.669,0,499.811c0,276.147,223.862,500,500.003,500
			c276.138,0,499.997-223.853,499.997-500C1000,223.669,776.141-0.189,500.003-0.189z M500.003,917.453
			c-229.561,0-415.66-186.098-415.66-415.656c0-229.565,186.1-415.664,415.66-415.664c229.563,0,415.656,186.099,415.656,415.659
			C915.66,731.355,729.567,917.453,500.003,917.453z"/>
		<path fill="#FFFFFF" d="M500.003,339.385c-89.078,0-161.293,72.212-161.293,161.289c0,89.08,72.215,161.29,161.293,161.29
			c89.084,0,161.288-72.21,161.288-161.29C661.292,411.6,589.087,339.385,500.003,339.385z M500.003,574.316
			c-39.566,0-71.64-32.071-71.64-71.632c0-39.566,32.073-71.641,71.64-71.641c39.562,0,71.632,32.074,71.632,71.641
			C571.635,542.245,539.566,574.316,500.003,574.316z"/>
	</mask>
</defs>
<g>
	<path fill="#FFFFFF" d="M500.003,161.101c-187.068,0-338.708,151.645-338.708,338.71s151.646,338.714,338.708,338.714
		c187.057,0,338.712-151.648,338.712-338.714S687.06,161.101,500.003,161.101z M500.003,750.702
		c-137.824,0-249.553-111.718-249.553-249.548c0-137.826,111.73-249.547,249.553-249.547c137.825,0,249.554,111.721,249.554,249.547
		C749.557,638.984,637.829,750.702,500.003,750.702z"/>
	<path fill="#FFFFFF" d="M500.003-0.189C223.863-0.189,0,223.669,0,499.811c0,276.147,223.862,500,500.003,500
		c276.138,0,499.997-223.853,499.997-500C1000,223.669,776.141-0.189,500.003-0.189z M500.003,917.453
		c-229.561,0-415.66-186.098-415.66-415.656c0-229.565,186.1-415.664,415.66-415.664c229.563,0,415.656,186.099,415.656,415.659
		C915.66,731.355,729.567,917.453,500.003,917.453z"/>
	<path fill="#FFFFFF" d="M500.003,339.385c-89.078,0-161.293,72.212-161.293,161.289c0,89.08,72.215,161.29,161.293,161.29
		c89.084,0,161.288-72.21,161.288-161.29C661.292,411.6,589.087,339.385,500.003,339.385z M500.003,574.316
		c-39.566,0-71.64-32.071-71.64-71.632c0-39.566,32.073-71.641,71.64-71.641c39.562,0,71.632,32.074,71.632,71.641
		C571.635,542.245,539.566,574.316,500.003,574.316z"/>
</g>
</svg>
