<?xml version="1.0" encoding="utf-8"?>
<!-- Generator: Adobe Illustrator 16.0.0, SVG Export Plug-In . SVG Version: 6.00 Build 0)  -->
<!DOCTYPE svg PUBLIC "-//W3C//DTD SVG 1.1//EN" "http://www.w3.org/Graphics/SVG/1.1/DTD/svg11.dtd">
<svg version="1.1" id="Layer_1" xmlns="http://www.w3.org/2000/svg" xmlns:xlink="http://www.w3.org/1999/xlink" x="0px" y="0px"
	 width="287.917px" height="134.4px" viewBox="0 0 287.917 134.4" enable-background="new 0 0 287.917 134.4" xml:space="preserve">
<path fill-rule="evenodd" clip-rule="evenodd" fill="#4D4D4D" d="M140.239-34.664C85.924-32.686,42.499,11.97,42.499,66.769
	c0,56.058,45.444,101.501,101.501,101.501c56.057,0,101.501-45.443,101.501-101.501c0-54.521-42.988-99.002-96.917-101.399
	l3.062,27.405c37.711,3.83,67.138,35.676,67.138,74.397c0,41.302-33.481,74.783-74.784,74.783
	c-41.302,0-74.784-33.481-74.784-74.783c0-38.689,29.38-70.516,67.045-74.388L140.239-34.664z"/>
<path fill-rule="evenodd" clip-rule="evenodd" fill="#4D4D4D" d="M136.572-88.262C54.304-84.386-11.206-16.459-11.206,66.769
	c0,85.718,69.488,155.206,155.206,155.206c85.716,0,155.206-69.487,155.206-155.206c0-83.733-66.31-151.979-149.279-155.094
	l-2.333,26.734c69.598,1.903,125.432,58.919,125.432,128.976c0,71.258-57.767,129.024-129.025,129.024S14.975,138.642,14.975,67.384
	c0-69.214,54.5-125.699,122.928-128.882L136.572-88.262z"/>
<path fill-rule="evenodd" clip-rule="evenodd" fill="#4D4D4D" d="M144,18.972c-26.546,0-48.065,21.52-48.065,48.065
	c0,26.545,21.52,48.065,48.065,48.065c26.546,0,48.066-21.52,48.066-48.065c0-23.597-17.002-43.221-39.426-47.291l-2.967,27.303
	c9.037,2.485,15.675,10.76,15.675,20.585c0,11.79-9.558,21.348-21.348,21.348c-11.79,0-21.348-9.558-21.348-21.348
	S132.21,46.287,144,46.287V18.972z"/>
</svg>
