<?xml version="1.0" encoding="utf-8"?>
<!-- Generator: Adobe Illustrator 16.0.0, SVG Export Plug-In . SVG Version: 6.00 Build 0)  -->
<!DOCTYPE svg PUBLIC "-//W3C//DTD SVG 1.1//EN" "http://www.w3.org/Graphics/SVG/1.1/DTD/svg11.dtd">
<svg version="1.1" xmlns="http://www.w3.org/2000/svg" xmlns:xlink="http://www.w3.org/1999/xlink" x="0px" y="0px" width="878px"
	 height="726px" viewBox="0 0 878 726" enable-background="new 0 0 878 726" xml:space="preserve">
<g id="Layer_1">
	<g>
		<circle fill="#FFFFFF" cx="437.002" cy="362.62" r="75"/>
		<path fill="#FFFFFF" d="M437.003,170.286c-106.227,0-192.335,86.109-192.335,192.333c0,106.227,86.108,192.336,192.335,192.336
			c106.224,0,192.333-86.109,192.333-192.336C629.336,256.395,543.227,170.286,437.003,170.286z M437.002,496.288
			c-73.824,0-133.668-59.844-133.668-133.668c0-73.823,59.844-133.667,133.668-133.667c73.823,0,133.667,59.844,133.667,133.667
			C570.669,436.444,510.825,496.288,437.002,496.288z"/>
		<path fill="#FFFFFF" d="M437.004,56.286c-169.189,0-306.336,137.147-306.336,306.333c0,169.188,137.146,306.336,306.336,306.336
			c169.184,0,306.332-137.147,306.332-306.336C743.336,193.434,606.188,56.286,437.004,56.286z M437.003,613.621
			c-138.628,0-251.002-112.374-251.002-251.002c0-138.625,112.374-250.999,251.002-250.999
			c138.625,0,250.999,112.374,250.999,250.999C688.002,501.247,575.628,613.621,437.003,613.621z"/>
		<path fill="#FFFFFF" d="M437.004-63.047c-235.097,0-425.67,190.574-425.67,425.665c0,235.096,190.573,425.67,425.67,425.67
			c235.091,0,425.665-190.574,425.665-425.67C862.669,127.526,672.095-63.047,437.004-63.047z M437.004,728.954
			c-202.326,0-366.336-164.01-366.336-366.336c0-202.321,164.01-366.331,366.336-366.331c202.322,0,366.332,164.01,366.332,366.331
			C803.336,564.944,639.326,728.954,437.004,728.954z"/>
	</g>
</g>
<g id="Layer_2" display="none">
	<g display="inline">
		<path fill="#FFFFFF" d="M-948.055,154.953c-108.616,0-196.666,88.05-196.666,196.666c0,108.615,88.05,196.666,196.666,196.666
			s196.667-88.051,196.667-196.666C-751.389,243.003-839.439,154.953-948.055,154.953z M-948.055,484.952
			c-73.638,0-133.333-59.695-133.333-133.333s59.695-133.333,133.333-133.333c73.638,0,133.333,59.695,133.333,133.333
			S-874.417,484.952-948.055,484.952z"/>
		<path fill="#FFFFFF" d="M-948.056,24.459c-180.685,0-327.159,146.474-327.159,327.159c0,180.685,146.474,327.159,327.159,327.159
			c180.686,0,327.16-146.475,327.16-327.159C-620.896,170.934-767.37,24.459-948.056,24.459z M-948.056,617.149
			c-146.647,0-265.53-118.883-265.53-265.53c0-146.648,118.882-265.53,265.53-265.53c146.649,0,265.531,118.882,265.531,265.53
			C-682.524,498.266-801.406,617.149-948.056,617.149z"/>
		<path fill="#FFFFFF" d="M-948.056-106.035c-252.755,0-457.654,204.898-457.654,457.654c0,252.754,204.898,457.654,457.654,457.654
			c252.755,0,457.655-204.9,457.655-457.654C-490.4,98.863-695.301-106.035-948.056-106.035z M-948.056,743.756
			c-216.571,0-392.138-175.567-392.138-392.138c0-216.571,175.567-392.137,392.138-392.137c216.573,0,392.14,175.566,392.14,392.137
			C-555.916,568.189-731.482,743.756-948.056,743.756z"/>
	</g>
</g>
</svg>
